<mxfile host="app.diagrams.net" modified="2023-07-30T10:46:20.390Z" agent="Mozilla/5.0 (Windows NT 10.0; Win64; x64) AppleWebKit/537.36 (KHTML, like Gecko) Chrome/114.0.0.0 YaBrowser/23.7.1.1140 Yowser/2.5 Safari/537.36" etag="o_kNsM9W6XWjx6IB-3Ac" version="21.3.8" type="device">
  <diagram name="Страница 1" id="SB8phqjKvgsn3Or88m5B">
    <mxGraphModel dx="1687" dy="931" grid="1" gridSize="10" guides="1" tooltips="1" connect="1" arrows="1" fold="1" page="1" pageScale="1" pageWidth="827" pageHeight="1169" math="0" shadow="0">
      <root>
        <mxCell id="0" />
        <mxCell id="1" parent="0" />
      </root>
    </mxGraphModel>
  </diagram>
</mxfile>
